<svg width="195" height="127" viewBox="0 0 195 127" fill="none" xmlns="http://www.w3.org/2000/svg">
<g clip-path="url(#clip0)">
<path d="M135.545 61.1005H52.5428C51.4884 61.1005 50.6098 60.2226 50.6098 59.1691V4.1553C50.6098 3.10185 51.4884 2.22397 52.5428 2.22397H135.545C136.6 2.22397 137.478 3.10185 137.478 4.1553V59.1691C137.478 60.2226 136.658 61.1005 135.545 61.1005Z" fill="white"/>
<path d="M135.545 63.3244H52.5428C50.2583 63.3244 48.3839 61.4516 48.3839 59.1691V4.1553C48.3839 1.87281 50.2583 0 52.5428 0H135.545C137.83 0 139.704 1.87281 139.704 4.1553V59.1691C139.704 61.4516 137.83 63.3244 135.545 63.3244ZM52.8357 58.8765H135.311V4.44793H52.8357V58.8765Z" fill="#0597C7"/>
<path d="M137.478 53.6092C133.671 53.6092 129.863 52.6143 126.466 50.683C119.671 46.7618 115.454 39.5046 115.454 31.6622C115.454 23.8198 119.671 16.5627 126.466 12.6415C133.261 8.72028 141.696 8.72028 148.432 12.6415C155.227 16.5627 159.444 23.8198 159.444 31.6622C159.444 39.5046 155.227 46.7618 148.432 50.683C145.093 52.6143 141.286 53.6092 137.478 53.6092ZM137.478 18.5525C135.194 18.5525 132.968 19.1378 130.918 20.3083C126.876 22.6493 124.357 26.9802 124.357 31.6622C124.357 36.3442 126.876 40.6751 130.918 43.0161C134.959 45.3571 139.997 45.3571 144.039 43.0161C148.08 40.6751 150.599 36.3442 150.599 31.6622C150.599 26.9802 148.08 22.6493 144.039 20.3083C142.047 19.1378 139.763 18.5525 137.478 18.5525Z" fill="white"/>
<path d="M114.868 62.2124H73.2202V66.4263H114.868V62.2124Z" fill="#0597C7"/>
<path d="M119.964 31.6622C119.964 37.9244 123.303 43.7184 128.75 46.8203C134.198 49.9221 140.876 49.9221 146.265 46.8203C151.712 43.7184 155.051 37.9244 155.051 31.6622C155.051 25.4 151.712 19.606 146.265 16.5042C140.817 13.4023 134.139 13.4023 128.75 16.5042C123.303 19.606 119.964 25.4 119.964 31.6622Z" fill="white"/>
<path d="M137.478 51.3853C134.081 51.3853 130.625 50.5074 127.579 48.7516C121.487 45.2401 117.679 38.6853 117.679 31.6622C117.679 24.6392 121.487 18.0843 127.579 14.5728C133.671 11.0613 141.227 11.0613 147.319 14.5728C153.411 18.0843 157.218 24.6392 157.218 31.6622C157.218 38.6853 153.411 45.2401 147.319 48.7516C144.332 50.5074 140.934 51.3853 137.478 51.3853ZM137.478 16.3286C134.842 16.3286 132.206 17.0309 129.805 18.377C125.06 21.1277 122.131 26.1608 122.131 31.6037C122.131 37.0465 125.06 42.1383 129.805 44.8304C134.549 47.5811 140.407 47.5811 145.152 44.8304C149.896 42.0797 152.825 37.0465 152.825 31.6037C152.825 26.1608 149.896 21.0691 145.152 18.377C142.809 17.0309 140.173 16.3286 137.478 16.3286Z" fill="#0597C7"/>
<path d="M126.7 34.1788L129.102 31.7793L133.202 35.9346L145.913 23.2346L148.315 25.5756L133.202 40.6751L126.7 34.1788Z" fill="#0597C7"/>
<path d="M71.0528 11.0028H63.7894V18.2599H71.0528V11.0028Z" fill="#0597C7"/>
<path d="M110.006 10.8272H75.9733V12.6415H110.006V10.8272Z" fill="#0597C7"/>
<path d="M97.0021 16.5627H75.9733V18.377H97.0021V16.5627Z" fill="#0597C7"/>
<path d="M71.0528 28.2677H63.7894V35.5249H71.0528V28.2677Z" fill="#0597C7"/>
<path d="M110.006 28.0922H75.9733V29.9065H110.006V28.0922Z" fill="#0597C7"/>
<path d="M97.0021 33.8862H75.9733V35.7005H97.0021V33.8862Z" fill="#0597C7"/>
<path d="M71.0528 45.5327H63.7894V52.7899H71.0528V45.5327Z" fill="#0597C7"/>
<path d="M110.006 45.4157H75.9733V47.23H110.006V45.4157Z" fill="#0597C7"/>
<path d="M97.0021 51.1512H75.9733V52.9654H97.0021V51.1512Z" fill="#0597C7"/>
<path d="M10.6609 98.9078C6.85341 98.9078 4.97897 100.254 4.97897 103.005C4.97897 104.409 5.44758 105.404 6.32622 106.048C7.20487 106.633 9.19646 107.394 12.2424 108.272C15.2884 109.15 17.4557 110.203 18.7444 111.374C19.9745 112.603 20.6188 114.476 20.6188 117.109C20.6188 120.445 19.6816 122.903 17.8657 124.542C16.0499 126.181 13.5311 127 10.368 127C7.8492 127 5.03755 126.707 1.93301 126.064L0.292881 125.712L0.76149 121.616C4.80324 122.142 7.8492 122.435 10.0165 122.435C13.7068 122.435 15.5813 120.738 15.5813 117.343C15.5813 115.997 15.1712 115.061 14.3512 114.417C13.5311 113.773 11.6567 113.071 8.72785 112.369C5.79904 111.608 3.63172 110.554 2.16732 109.267C0.702914 108.038 0 105.931 0 103.063C0 100.195 0.878642 98.03 2.6945 96.5668C4.51036 95.1037 7.02914 94.4014 10.1922 94.4014C12.4767 94.4014 15.2298 94.694 18.3343 95.2207L19.9159 95.5134L19.5059 99.6687C15.347 99.2005 12.4181 98.9078 10.6609 98.9078Z" fill="#0597C7"/>
<path d="M37.4887 107.804H31.3382V117.929C31.3382 119.801 31.4554 121.03 31.7483 121.674C32.0412 122.259 32.6855 122.611 33.7984 122.611L37.4302 122.494L37.6645 126.473C35.6729 126.883 34.1499 127.059 33.1541 127.059C30.6353 127.059 28.9366 126.473 27.9994 125.244C27.0622 124.074 26.5936 121.791 26.5936 118.455V107.804H23.7819V103.531H26.5936V96.8595H31.3968V103.531H37.4887V107.804Z" fill="#0597C7"/>
<path d="M48.4425 116.348C46.3923 116.524 45.338 117.694 45.338 119.801C45.338 121.908 46.2752 122.962 48.091 122.962C49.5554 122.962 51.1956 122.728 52.8357 122.201L53.6558 121.908V115.822L48.4425 116.348ZM58.459 110.613V121.089C58.5176 121.733 58.6347 122.259 58.9862 122.552C59.2791 122.845 59.8063 123.079 60.4506 123.196L60.3334 127C57.7561 127 55.7645 126.415 54.3587 125.303C51.9571 126.415 49.5554 127 47.1538 127C42.702 127 40.4761 124.542 40.4761 119.684C40.4761 117.343 41.0619 115.705 42.292 114.651C43.5221 113.598 45.338 113.012 47.8567 112.778L53.6558 112.252V110.613C53.6558 109.384 53.4215 108.506 52.8943 108.038C52.3671 107.57 51.6056 107.277 50.6098 107.277C48.6768 107.277 46.3337 107.394 43.4635 107.628L42.0577 107.745L41.882 104.234C45.1622 103.414 48.1496 103.063 50.8441 103.063C53.5972 103.063 55.5302 103.648 56.7603 104.877C57.8732 106.106 58.459 108.038 58.459 110.613Z" fill="#0597C7"/>
<path d="M69.9399 126.473H65.0781V103.59H69.8814V104.994C72.0487 103.707 74.0988 103.063 76.0318 103.063C79.0192 103.063 81.0694 103.941 82.1238 105.638C83.2367 107.335 83.7639 110.203 83.7639 114.183V126.473H78.9606V114.3C78.9606 111.842 78.7263 110.086 78.1992 109.033C77.672 107.979 76.6176 107.453 74.9775 107.453C73.4545 107.453 71.9901 107.745 70.5843 108.389L69.9399 108.682V126.473Z" fill="#0597C7"/>
<path d="M102.625 121.733L103.387 121.382V107.745C101.571 107.453 99.9309 107.277 98.4079 107.277C95.362 107.277 93.8976 109.852 93.8976 115.002C93.8976 117.812 94.249 119.801 94.9519 120.855C95.6548 121.967 96.7678 122.494 98.2908 122.494C99.8137 122.552 101.22 122.259 102.625 121.733ZM108.249 93.9332V126.532H103.387V125.361C101.22 126.473 99.228 127.059 97.4121 127.059C94.4833 127.059 92.3746 126.181 90.9687 124.366C89.6215 122.552 88.9186 119.509 88.9186 115.236C88.9186 110.964 89.6801 107.862 91.203 105.931C92.726 104 95.0691 103.005 98.2322 103.005C99.2866 103.005 100.985 103.18 103.328 103.59V93.9332H108.249Z" fill="#0597C7"/>
<path d="M119.788 116.173C117.738 116.348 116.684 117.519 116.684 119.626C116.684 121.733 117.562 122.786 119.437 122.786C120.901 122.786 122.541 122.552 124.181 122.025L125.001 121.733V115.646L119.788 116.173ZM129.805 110.496V120.972C129.863 121.616 129.98 122.142 130.332 122.435C130.625 122.728 131.152 122.962 131.796 123.079L131.679 126.883C129.102 126.883 127.11 126.298 125.704 125.186C123.303 126.298 120.901 126.883 118.5 126.883C114.048 126.883 111.822 124.425 111.822 119.567C111.822 117.226 112.408 115.588 113.638 114.534C114.868 113.481 116.684 112.895 119.202 112.661L125.001 112.135V110.496C125.001 109.267 124.767 108.389 124.24 107.921C123.713 107.453 122.951 107.16 121.956 107.16C120.023 107.16 117.679 107.277 114.809 107.511L113.403 107.628L113.228 104.117C116.508 103.297 119.495 102.946 122.19 102.946C124.943 102.946 126.876 103.531 128.106 104.76C129.219 105.931 129.805 107.862 129.805 110.496Z" fill="#0597C7"/>
<path d="M137.83 126.473V103.59H142.633V106.341C145.152 104.643 147.67 103.59 150.131 103.063V108.038C147.612 108.565 145.445 109.208 143.629 110.028L142.633 110.437V126.415H137.83V126.473Z" fill="#0597C7"/>
<path d="M166.708 121.733L167.469 121.382V107.745C165.653 107.453 164.013 107.277 162.49 107.277C159.444 107.277 157.98 109.852 157.98 115.002C157.98 117.812 158.331 119.801 159.034 120.855C159.737 121.967 160.85 122.494 162.373 122.494C163.837 122.552 165.302 122.259 166.708 121.733ZM172.331 93.9332V126.532H167.469V125.361C165.302 126.473 163.31 127.059 161.494 127.059C158.566 127.059 156.457 126.181 155.051 124.366C153.704 122.552 153.001 119.509 153.001 115.236C153.001 110.964 153.762 107.862 155.285 105.931C156.808 104 159.151 103.005 162.315 103.005C163.369 103.005 165.068 103.18 167.411 103.59V93.9332H172.331Z" fill="#0597C7"/>
<path d="M194.239 108.272C190.724 107.804 188.205 107.511 186.624 107.511C185.042 107.511 183.929 107.687 183.343 108.096C182.758 108.506 182.406 109.091 182.406 109.911C182.406 110.73 182.758 111.315 183.402 111.666C184.046 112.018 185.628 112.369 188.147 112.837C190.607 113.305 192.423 113.949 193.418 114.944C194.473 115.88 195 117.577 195 119.977C195 122.377 194.239 124.191 192.716 125.303C191.193 126.415 189.025 127 186.155 127C184.339 127 182.055 126.766 179.302 126.239L177.896 126.005L178.071 121.85C181.645 122.318 184.222 122.611 185.804 122.611C187.385 122.611 188.498 122.435 189.201 122.025C189.845 121.616 190.197 120.972 190.197 120.036C190.197 119.099 189.904 118.455 189.26 118.104C188.615 117.753 187.092 117.343 184.632 116.934C182.23 116.524 180.415 115.88 179.302 115.002C178.189 114.124 177.603 112.486 177.603 110.145C177.603 107.804 178.364 106.048 179.946 104.877C181.527 103.707 183.519 103.122 185.979 103.122C187.912 103.122 190.197 103.356 193.008 103.883L194.414 104.175L194.239 108.272Z" fill="#0597C7"/>
</g>
<defs>
<clipPath id="clip0">
<rect width="195" height="127" fill="white"/>
</clipPath>
</defs>
</svg>
