<svg width="272" height="138" viewBox="0 0 272 138" fill="none" xmlns="http://www.w3.org/2000/svg">
<g clip-path="url(#clip0)">
<path d="M5.0318 123.302H11.364C14.9823 123.302 16.7915 121.072 16.7915 116.611C16.7915 114.495 16.3392 112.893 15.4912 111.921C14.6431 110.949 13.2297 110.434 11.364 110.434H5.0318V123.302ZM11.4205 127.706H5.0318V137.485H0V106.031H11.4205C18.4876 106.031 21.9929 109.576 21.9929 116.611C21.9929 120.214 21.0883 122.959 19.3357 124.903C17.5265 126.791 14.9258 127.706 11.4205 127.706Z" fill="#00B29B"/>
<path d="M26.2332 137.485V114.495H31.1519V117.24C33.6961 115.581 36.2968 114.495 38.8975 113.98V119.013C36.2968 119.528 34.0919 120.214 32.2261 121.015L31.2085 121.415V137.428H26.2332V137.485Z" fill="#00B29B"/>
<path d="M47.3781 131.938C48.0566 133.139 49.4134 133.768 51.4488 133.768C53.4841 133.768 54.841 133.139 55.5194 131.938C56.1979 130.737 56.5371 128.678 56.5371 125.933C56.5371 123.131 56.1414 121.186 55.4064 119.985C54.6714 118.841 53.3145 118.269 51.3922 118.269C49.47 118.269 48.1131 118.841 47.3781 119.985C46.6431 121.129 46.2474 123.131 46.2474 125.933C46.3604 128.735 46.6997 130.737 47.3781 131.938ZM43.7032 117.011C45.2862 115.01 47.8304 114.037 51.5053 114.037C55.1237 114.037 57.7244 115.01 59.3074 117.011C60.8905 119.013 61.6255 121.987 61.6255 125.99C61.6255 129.993 60.8905 132.967 59.364 134.969C57.8375 136.971 55.2368 138 51.5053 138C47.7739 138 45.1732 136.971 43.6467 134.969C42.1202 132.967 41.3852 129.936 41.3852 125.99C41.3852 121.987 42.1202 119.013 43.7032 117.011Z" fill="#00B29B"/>
<path d="M79.3215 132.739L80.1131 132.395V118.784C78.3039 118.498 76.6078 118.327 75.0813 118.327C72.0283 118.327 70.5018 120.9 70.5018 126.047C70.5018 128.85 70.841 130.794 71.576 131.881C72.3109 132.967 73.4417 133.482 74.9682 133.482C76.4382 133.539 77.9081 133.253 79.3215 132.739ZM85.0318 105.001V137.542H80.1131V136.341C77.9081 137.485 75.8728 138.057 74.0071 138.057C71.0671 138.057 68.8622 137.142 67.5053 135.369C66.1484 133.539 65.4134 130.508 65.4134 126.276C65.4134 122.044 66.2049 118.956 67.7314 117.011C69.2579 115.067 71.6325 114.094 74.9117 114.094C75.9859 114.094 77.7385 114.266 80.1131 114.666V105.001H85.0318Z" fill="#00B29B"/>
<path d="M104.763 114.552H109.682V137.542H104.763V136.113C102.558 137.371 100.523 138.057 98.6572 138.057C95.5477 138.057 93.4558 137.199 92.3816 135.484C91.3074 133.768 90.7986 130.794 90.7986 126.562V114.552H95.7738V126.562C95.7738 129.307 96 131.194 96.4523 132.109C96.9046 133.082 97.9788 133.539 99.6184 133.539C101.258 133.539 102.728 133.253 104.141 132.624L104.82 132.338V114.552H104.763Z" fill="#00B29B"/>
<path d="M124.155 114.037C125.738 114.037 127.661 114.266 129.809 114.666L130.94 114.895L130.77 118.841C128.396 118.613 126.587 118.498 125.456 118.498C123.138 118.498 121.611 119.013 120.82 120.042C120.028 121.072 119.632 123.016 119.632 125.933C119.632 128.85 120.028 130.794 120.763 131.881C121.498 132.967 123.081 133.539 125.512 133.539L130.827 133.196L130.94 137.199C127.887 137.771 125.569 138 124.042 138C120.594 138 118.163 137.085 116.749 135.198C115.336 133.31 114.657 130.222 114.657 125.933C114.657 121.644 115.392 118.613 116.862 116.782C118.389 114.952 120.82 114.037 124.155 114.037Z" fill="#00B29B"/>
<path d="M147.958 118.784H141.682V128.907C141.682 130.794 141.795 131.995 142.078 132.624C142.36 133.253 143.039 133.539 144.17 133.539L147.901 133.425L148.127 137.428C146.092 137.828 144.565 138 143.491 138C140.947 138 139.138 137.428 138.177 136.227C137.216 135.026 136.763 132.796 136.763 129.479V118.841H133.88V114.552H136.763V107.918H141.682V114.552H147.958V118.784Z" fill="#00B29B"/>
<path d="M150.106 106.031H155.421L159.83 133.082H160.792L166.728 106.145H172.608L178.488 133.082H179.505L183.972 106.031H189.286L183.124 137.485H175.039L169.668 112.264L164.353 137.485H156.155L150.106 106.031Z" fill="#00B29B"/>
<path d="M192.735 137.485V114.495H197.654V117.24C200.198 115.581 202.799 114.495 205.399 113.98V119.013C202.799 119.528 200.594 120.214 198.728 121.015L197.71 121.415V137.428H192.735V137.485Z" fill="#00B29B"/>
<path d="M209.131 114.552H214.106V137.543H209.131V114.552ZM209.131 105.344H214.106V110.606H209.131V105.344Z" fill="#00B29B"/>
<path d="M232.254 118.784H225.979V128.907C225.979 130.794 226.092 131.995 226.375 132.624C226.657 133.253 227.336 133.539 228.466 133.539L232.198 133.425L232.424 137.428C230.389 137.828 228.862 138 227.788 138C225.244 138 223.435 137.428 222.474 136.227C221.512 135.026 221.06 132.796 221.06 129.479V118.841H218.177V114.552H221.06V107.918H225.979V114.552H232.254V118.784Z" fill="#00B29B"/>
<path d="M249.724 124.274C249.724 121.987 249.385 120.443 248.65 119.528C247.915 118.613 246.728 118.155 245.032 118.155C243.336 118.155 242.092 118.613 241.357 119.585C240.565 120.557 240.17 122.101 240.17 124.274H249.724ZM252.438 133.368L253.682 133.253L253.795 136.971C250.346 137.657 247.293 138 244.636 138C241.3 138 238.869 137.085 237.399 135.198C235.929 133.31 235.194 130.336 235.194 126.219C235.194 118.098 238.473 113.98 245.032 113.98C251.364 113.98 254.587 117.469 254.587 124.503L254.247 128.106H240.17C240.226 129.993 240.622 131.423 241.413 132.281C242.205 133.196 243.675 133.596 245.823 133.596C247.972 133.654 250.177 133.539 252.438 133.368Z" fill="#00B29B"/>
<path d="M259.336 137.485V114.495H264.254V117.24C266.799 115.581 269.399 114.495 272 113.98V119.013C269.399 119.528 267.194 120.214 265.329 121.015L264.311 121.415V137.428H259.336V137.485Z" fill="#00B29B"/>
<path d="M118.728 78.179C116.184 78.179 115.449 77.4356 113.979 74.4617L112.226 71.0302C111.83 70.2296 111.717 70.2296 110.926 70.5727C110.417 70.8587 109.852 71.0874 109.343 71.3734C107.986 72.0597 106.572 72.7459 105.159 73.4322C104.198 73.8898 102.841 73.7182 101.993 73.0891C101.201 72.5172 100.523 71.8881 99.788 71.259C99.2226 70.7443 98.6573 70.2868 98.0919 69.8293C97.3004 69.2002 96.5654 68.1135 97.1873 66.3978C97.8092 64.6249 98.4311 62.9092 99.053 61.1363L99.3922 60.1641C99.3922 60.1069 99.3922 59.9925 99.3357 59.8782C99.2792 59.7638 99.1661 59.6494 99.053 59.6494L98.1484 59.3634C96.3392 58.7344 94.53 58.1053 92.6643 57.5334C90.8551 56.9615 90.4594 55.6461 90.4028 54.6738C90.3463 53.2441 90.2332 51.7571 90.0636 49.8699C89.9505 48.8976 90.1767 47.6395 91.7597 46.896C93.1732 46.2097 94.5866 45.5234 96 44.7799L97.6396 43.9221C97.9223 43.7505 98.0919 43.6361 98.0919 43.5218C98.1484 43.4074 98.0919 43.2358 97.9788 43.0642L97.1873 41.5201C96.4523 40.0903 95.7173 38.6606 95.0389 37.1736C94.5866 36.2014 94.7562 34.7717 95.4346 33.971C96.0565 33.2275 96.6785 32.484 97.3004 31.7978C97.8092 31.2259 98.2615 30.7111 98.7703 30.1392C99.6749 29.0526 100.806 28.7667 102.163 29.2242C103.915 29.8533 105.611 30.4252 107.364 30.9971L108.495 31.3974C108.664 31.4546 109.06 31.2259 109.173 31.0543L109.456 30.2536C110.078 28.4807 110.756 26.5935 111.322 24.8206C111.774 23.3908 112.735 22.6473 114.205 22.5901C115.675 22.5329 117.201 22.4186 119.067 22.247C119.972 22.1326 121.272 22.3614 122.007 23.9055C122.686 25.3353 123.421 26.7078 124.155 28.0804L125.004 29.7389C125.286 30.3108 125.512 30.3108 125.965 30.0821L127.491 29.3386C128.961 28.5951 130.431 27.8516 131.958 27.1654C132.919 26.7078 134.276 26.8794 135.124 27.5085C135.859 28.0804 136.594 28.7095 137.329 29.3386C137.894 29.7961 138.459 30.3108 139.025 30.7683C139.76 31.3974 140.551 32.484 139.929 34.1997C139.307 35.9726 138.686 37.6884 138.064 39.4613L137.724 40.4335C137.668 40.5479 137.894 40.9482 138.064 41.0054L138.968 41.2913C140.777 41.9204 142.587 42.5495 144.452 43.1214C146.261 43.6933 146.657 45.0087 146.714 45.9809C146.77 47.4107 146.883 48.8976 147.053 50.7849C147.166 51.7571 146.94 53.0153 145.357 53.7588C144.057 54.3879 142.756 55.0742 141.399 55.7033L139.421 56.6755C139.081 56.8471 138.968 57.0186 138.912 57.0758C138.912 57.133 138.912 57.3046 139.025 57.5334L139.816 59.0203C140.551 60.4501 141.286 61.937 142.021 63.424C142.474 64.3962 142.304 65.7687 141.625 66.6266C141.004 67.3701 140.382 68.1135 139.76 68.7998C139.251 69.3717 138.799 69.8864 138.29 70.4583C137.385 71.545 136.254 71.8309 134.898 71.3734C132.975 70.6871 131.11 70.058 129.187 69.4289L128.565 69.2002C128.339 69.143 128 69.3145 127.887 69.4861L127.435 70.7443C126.869 72.3456 126.304 74.0041 125.739 75.6627C125.117 77.6643 123.647 78.0646 122.572 78.0075C122.12 78.0075 121.668 78.0646 121.159 78.0646C120.876 78.0646 120.65 78.1218 120.367 78.1218C119.802 78.179 119.237 78.179 118.728 78.179ZM111.661 66.6838C113.244 66.6838 114.544 67.5988 115.392 69.3717L117.145 72.8031C117.541 73.6038 117.936 74.4045 118.106 74.576C118.276 74.6332 119.237 74.576 120.141 74.4617C120.367 74.4617 120.594 74.4045 120.82 74.4045C121.329 74.3473 121.837 74.2901 122.346 74.2901C122.855 72.6888 123.421 71.0302 123.986 69.4861L124.438 68.2279C125.173 66.1691 127.548 64.9681 129.583 65.6544L130.205 65.8831C132.014 66.5122 133.88 67.0841 135.689 67.7132C136.141 67.1985 136.537 66.741 136.989 66.2263C137.498 65.6544 138.007 65.0825 138.516 64.5106C137.894 63.1952 137.216 61.8798 136.537 60.5644L135.746 59.0203C135.18 57.9337 135.067 56.7899 135.406 55.7605C135.633 55.017 136.254 53.9876 137.724 53.2441L139.647 52.2719C140.834 51.6428 142.021 51.0709 143.265 50.499C143.095 48.9548 143.039 47.5823 142.982 46.3241C141.23 45.7522 139.421 45.1803 137.724 44.5512L136.82 44.2652C135.802 43.9221 134.954 43.1786 134.502 42.1492C134.049 41.177 133.936 40.0332 134.276 39.0609L134.615 38.0887C135.18 36.4302 135.746 34.7717 136.368 33.1131C135.859 32.7128 135.406 32.3125 134.954 31.9121C134.332 31.3974 133.767 30.8827 133.145 30.368C131.788 30.9971 130.431 31.6834 129.074 32.3697L127.548 33.1131C125.286 34.2569 122.968 33.4563 121.781 31.1687L120.933 29.5673C120.254 28.3092 119.633 26.9938 118.954 25.6784C117.314 25.85 115.958 25.9072 114.657 25.9644C114.092 27.7373 113.47 29.5102 112.848 31.2259L112.565 32.0265C111.887 34.0282 109.399 35.2292 107.421 34.6001L106.29 34.1997C104.65 33.6278 102.954 33.1131 101.314 32.5412C100.862 33.0559 100.466 33.5135 100.014 34.0282C99.5053 34.6001 98.9965 35.172 98.4876 35.7439C99.1095 37.0593 99.788 38.3174 100.41 39.6328L101.201 41.2341C101.767 42.3208 101.88 43.4646 101.541 44.494C101.201 45.5806 100.41 46.4385 99.2226 47.0104L97.5831 47.8682C96.2827 48.4973 94.9823 49.1836 93.682 49.8127C93.8516 51.3568 93.9081 52.7294 93.9647 53.9876C95.7173 54.5595 97.5265 55.1314 99.2226 55.7605L100.071 56.0464C101.088 56.3896 101.936 57.133 102.389 58.1624C102.841 59.1347 102.954 60.2785 102.615 61.2507L102.276 62.223C101.71 63.8815 101.145 65.54 100.523 67.1985C101.032 67.5988 101.484 67.9992 101.993 68.4567C102.615 68.9714 103.18 69.4861 103.802 69.9436C105.046 69.3717 106.346 68.7426 107.59 68.1135C108.099 67.8276 108.664 67.5988 109.173 67.3129C110.134 66.9126 110.926 66.6838 111.661 66.6838ZM138.855 64.2246C138.855 64.2246 138.855 64.2818 138.855 64.2246C138.855 64.2818 138.855 64.2246 138.855 64.2246ZM118.502 61.7654C115.675 61.7654 112.961 60.7932 110.813 58.9059C108.438 56.8471 107.025 54.0448 106.855 50.8993C106.629 47.8682 107.647 44.8371 109.682 42.4923C111.774 40.0903 114.657 38.6606 117.767 38.4318C117.993 38.4318 118.219 38.4318 118.445 38.4318C118.502 38.4318 118.558 38.4318 118.558 38.4318C124.664 38.4318 129.866 43.1786 130.261 49.298C130.488 52.3862 129.413 55.4173 127.378 57.7621C126.982 58.2196 126.53 58.6772 126.021 59.0775C124.438 60.3357 122.572 61.1935 120.594 61.5367C120.198 61.5939 119.746 61.6511 119.35 61.7082C119.067 61.7654 118.784 61.7654 118.502 61.7654ZM118.502 58.1053C118.671 58.1053 118.898 58.1053 119.067 58.1053C119.35 58.1053 119.633 58.0481 119.972 57.9909C121.329 57.7621 122.629 57.1902 123.703 56.3324C124.042 56.0464 124.382 55.7033 124.721 55.3601C126.134 53.7588 126.869 51.7 126.7 49.5839C126.417 45.3518 122.799 42.0348 118.502 42.092C118.332 42.092 118.163 42.092 118.049 42.092C115.845 42.2636 113.866 43.2358 112.452 44.8943C111.039 46.4956 110.36 48.5545 110.474 50.6133C110.587 52.7294 111.604 54.6738 113.187 56.1036C114.657 57.419 116.523 58.1053 118.502 58.1053Z" fill="#00B29B"/>
<path d="M162.148 42.6635C162.035 42.6635 161.922 42.6635 161.809 42.6635C161.527 42.6064 161.187 42.6635 160.848 42.6635C160.678 42.6635 160.452 42.6635 160.283 42.6635C157.117 42.6635 156.438 42.206 155.194 39.3465L154.064 36.7158C154.007 36.6014 154.007 36.5442 153.951 36.487C153.894 36.487 153.837 36.5442 153.724 36.5442L152.481 37.0589C151.463 37.5164 150.389 37.9168 149.258 38.3743C148.353 38.7174 147.166 38.4887 146.488 37.8596C145.979 37.402 145.47 36.8873 144.961 36.3726C144.565 35.9723 144.17 35.572 143.774 35.2288C143.265 34.7141 142.473 33.6847 143.152 32.0834C143.661 30.8824 144.17 29.7386 144.678 28.5376L145.018 27.6797L144.792 27.6225C143.378 26.9934 141.965 26.4215 140.495 25.8496C138.855 25.2205 138.629 23.9052 138.685 23.1617C138.742 22.1323 138.742 21.0456 138.685 19.6159C138.629 18.4149 139.251 17.4998 140.382 17.0423C141.512 16.5848 142.587 16.1273 143.661 15.6698L144.905 15.1551C144.905 15.1551 144.961 15.1551 144.961 15.0979L144.452 13.8397C144 12.7531 143.491 11.6664 143.095 10.5798C142.756 9.66479 142.982 8.46379 143.604 7.72032C144.113 7.20561 144.622 6.6909 145.131 6.17619C145.526 5.77585 145.922 5.43271 146.318 5.03238C146.883 4.40329 147.901 3.83139 149.371 4.46048C150.615 4.97519 151.859 5.4899 153.102 6.00462L153.837 6.29057C153.837 6.29057 153.837 6.29057 153.894 6.29057L154.064 5.94742C154.629 4.57486 155.251 3.20229 155.816 1.82973C156.438 0.285593 157.625 -0.000357989 158.473 0.0568322C159.548 0.114022 160.678 0.114022 162.092 0.0568322C163.279 -0.000357989 164.184 0.628734 164.636 1.71535C165.088 2.80196 165.541 3.83139 165.993 4.918L166.558 6.17619C166.558 6.23338 166.615 6.23338 166.615 6.29057H166.671L167.802 5.83304C168.933 5.37552 170.12 4.86081 171.307 4.40329C172.212 4.06015 173.399 4.28891 174.078 4.918C174.587 5.37552 175.095 5.89023 175.604 6.40495C176 6.80528 176.396 7.20561 176.792 7.54875C177.3 8.06346 178.092 9.09289 177.413 10.6942C176.848 11.9524 176.339 13.2106 175.774 14.526L175.548 15.0979L175.887 15.2694C177.244 15.8413 178.601 16.4132 180.014 16.9851C181.654 17.6142 181.88 18.9868 181.823 19.6731C181.767 20.7025 181.767 21.8463 181.823 23.2189C181.88 24.4199 181.258 25.3349 180.127 25.7924C179.053 26.1928 178.035 26.6503 176.961 27.1078L175.604 27.6797C175.604 27.6797 175.548 27.6797 175.548 27.7369L176.057 28.9379C176.509 30.0245 177.018 31.1111 177.413 32.2549C177.753 33.17 177.527 34.371 176.905 35.1144C176.396 35.6292 175.887 36.1439 175.378 36.6586C174.982 37.0589 174.587 37.4592 174.191 37.8596C173.625 38.4887 172.608 39.0606 171.138 38.4315C169.894 37.8596 168.594 37.3449 167.35 36.8301L166.615 36.5442L166.332 37.1733C165.823 38.4315 165.258 39.6897 164.749 40.9478C164.127 42.3776 162.996 42.6635 162.148 42.6635ZM158.982 39.0034C159.378 39.0606 160.113 39.0606 160.735 39.0034C161.018 39.0034 161.3 39.0034 161.583 39.0034C162.092 37.8024 162.544 36.6586 163.053 35.572L163.336 34.8857C164.071 33.17 166.163 32.3121 167.915 32.9984L168.707 33.3415C169.837 33.7991 170.968 34.2566 172.099 34.7713C172.382 34.4853 172.664 34.1994 172.947 33.9134C173.286 33.5703 173.625 33.2844 173.908 32.9412C173.569 32.0262 173.173 31.1683 172.777 30.2533L172.269 28.9951C171.873 28.0229 171.816 27.0506 172.212 26.1928C172.438 25.5637 173.06 24.7058 174.304 24.1911L175.661 23.6192C176.509 23.2761 177.413 22.8757 178.261 22.5326C178.261 21.6175 178.261 20.8169 178.261 20.0734C177.018 19.5587 175.774 19.044 174.53 18.5293L174.078 18.3577C173.23 18.0146 172.551 17.2711 172.212 16.4132C171.873 15.5554 171.873 14.5831 172.212 13.7825L172.495 13.039C172.947 11.9524 173.456 10.8086 173.908 9.72198C173.625 9.49322 173.399 9.20727 173.117 8.92132C172.777 8.57818 172.438 8.23503 172.099 7.89189C171.138 8.29222 170.177 8.69256 169.216 9.09289L168.085 9.55041C166.106 10.3511 164.184 9.55041 163.336 7.54875L162.77 6.29057C162.375 5.37552 161.979 4.51767 161.64 3.60263C160.678 3.60263 159.83 3.60263 159.039 3.60263C158.53 4.86081 158.021 6.06181 157.456 7.31999L157.286 7.72032C156.551 9.43603 154.403 10.2939 152.707 9.6076L151.859 9.26446C150.728 8.80694 149.654 8.34941 148.523 7.89189C148.24 8.17784 147.958 8.4066 147.731 8.69256C147.392 9.0357 147.053 9.32165 146.714 9.66479C147.053 10.5226 147.449 11.4377 147.788 12.2955L148.353 13.5537C148.749 14.4688 148.806 15.4982 148.41 16.356C148.071 17.2711 147.279 17.9574 146.318 18.3577L145.074 18.8724C144.17 19.2727 143.265 19.6159 142.36 20.0162C142.36 20.9313 142.36 21.7319 142.36 22.4754C143.661 22.9901 144.961 23.562 146.261 24.0767L146.544 24.1911C147.392 24.5342 148.071 25.2205 148.41 26.1356C148.749 26.9934 148.749 27.9657 148.41 28.8235L148.014 29.7957C147.562 30.8252 147.166 31.8546 146.714 32.8268C146.996 33.0556 147.223 33.3415 147.505 33.5703C147.845 33.9134 148.184 34.2566 148.523 34.5997C149.371 34.2566 150.276 33.9134 151.124 33.5131L152.367 32.9984C154.572 32.0834 156.438 32.884 157.399 35.1144L158.53 37.7452C158.643 38.3171 158.869 38.7746 158.982 39.0034ZM160.283 30.4248C160.226 30.4248 160.17 30.4248 160.17 30.4248C157.739 30.3677 155.477 29.4526 153.781 27.7369C152.028 26.0212 151.067 23.6764 151.067 21.2744C151.067 18.8724 152.028 16.5848 153.724 14.8691C155.477 13.0962 157.795 12.1812 160.226 12.1812H160.283C165.371 12.1812 169.442 16.2989 169.442 21.3888C169.442 23.848 168.481 26.1356 166.728 27.8513C165.032 29.4526 162.714 30.4248 160.283 30.4248ZM160.283 26.7647C161.753 26.7647 163.223 26.1928 164.297 25.1633C165.371 24.1339 165.936 22.7614 165.936 21.3316C165.936 18.3005 163.449 15.7841 160.339 15.7841C158.869 15.7841 157.399 16.356 156.325 17.4427C155.307 18.4721 154.686 19.8447 154.686 21.2744C154.686 22.7614 155.251 24.1339 156.269 25.1633C157.343 26.1928 158.756 26.7647 160.283 26.7647C160.226 26.7647 160.226 26.7647 160.283 26.7647Z" fill="#00B29B"/>
</g>
<defs>
<clipPath id="clip0">
<rect width="272" height="138" fill="white"/>
</clipPath>
</defs>
</svg>
