<svg width="152" height="129" viewBox="0 0 152 129" fill="none" xmlns="http://www.w3.org/2000/svg">
<path d="M0 104.76H5.16764V128.464H0V104.76ZM0 95.2908H5.16764V100.711H0V95.2908Z" fill="#8C66B6"/>
<path d="M16.5721 128.464H11.4045V104.76H16.5127V106.249C18.7698 104.939 20.7894 104.284 22.6307 104.284C25.363 104.284 27.3826 105.058 28.6299 106.607C31.4811 105.058 34.3322 104.284 37.1833 104.284C40.0344 104.284 41.9945 105.177 43.1825 106.904C44.3705 108.632 44.9051 111.609 44.9051 115.778V128.464H39.7968V115.898C39.7968 113.337 39.5592 111.55 39.0246 110.418C38.49 109.346 37.4209 108.81 35.8171 108.81C34.3916 108.81 32.8472 109.108 31.2435 109.763L30.4119 110.12C30.6495 110.776 30.7683 112.801 30.7683 116.195V128.464H25.66V116.314C25.66 113.515 25.4224 111.55 24.8879 110.478C24.4127 109.406 23.2841 108.87 21.5616 108.87C20.0172 108.87 18.5323 109.168 17.1661 109.823L16.4533 110.12V128.464H16.5721Z" fill="#8C66B6"/>
<path d="M57.9133 117.982C55.7155 118.161 54.6464 119.352 54.6464 121.555C54.6464 123.759 55.5967 124.831 57.5569 124.831C59.1012 124.831 60.8238 124.593 62.5463 124.057L63.3779 123.759V117.446L57.9133 117.982ZM68.4861 112.086V122.866C68.5455 123.58 68.7237 124.057 69.0207 124.414C69.3771 124.771 69.8523 124.95 70.5651 125.069L70.4463 129C67.714 129 65.635 128.404 64.1501 127.273C61.6553 128.464 59.1012 129 56.5471 129C51.8546 129 49.4787 126.499 49.4787 121.436C49.4787 119.054 50.1321 117.267 51.3795 116.195C52.6268 115.123 54.587 114.468 57.2599 114.23L63.3779 113.694V111.967C63.3779 110.716 63.0809 109.823 62.5463 109.287C62.0117 108.81 61.1802 108.512 60.111 108.512C58.0914 108.512 55.5967 108.632 52.5674 108.87L51.0825 108.989L50.9043 105.356C54.3494 104.522 57.4975 104.105 60.408 104.105C63.3185 104.105 65.3974 104.701 66.6448 105.951C67.8328 107.381 68.4861 109.346 68.4861 112.086Z" fill="#8C66B6"/>
<path d="M74.9605 128.464V104.76H80.0688V107.619C82.7417 105.892 85.4146 104.76 88.0875 104.224V109.406C85.3552 109.942 83.0387 110.656 81.1379 111.49L80.1282 111.907V128.464H74.9605Z" fill="#8C66B6"/>
<path d="M97.1755 128.464H92.0078V94.9335H97.1755V114.289L100.086 114.051L105.669 104.76H111.431L104.66 115.897L111.787 128.464H106.026L100.264 118.458L97.1755 118.816V128.464Z" fill="#8C66B6"/>
<path d="M129.072 114.825C129.072 112.503 128.716 110.835 127.944 109.942C127.231 108.989 125.924 108.572 124.202 108.572C122.42 108.572 121.172 109.048 120.341 110.061C119.509 111.014 119.093 112.622 119.093 114.885H129.072V114.825ZM131.923 124.235L133.23 124.116L133.349 127.928C129.785 128.643 126.578 129 123.786 129C120.281 129 117.787 128.047 116.242 126.082C114.698 124.176 113.926 121.079 113.926 116.85C113.926 108.453 117.371 104.224 124.202 104.224C130.795 104.224 134.121 107.857 134.121 115.064L133.765 118.756H119.093C119.153 120.722 119.569 122.151 120.341 123.044C121.172 123.938 122.717 124.414 124.914 124.414C127.231 124.474 129.547 124.414 131.923 124.235Z" fill="#8C66B6"/>
<path d="M151.822 109.168H145.288V119.59C145.288 121.496 145.407 122.806 145.704 123.402C146.001 124.057 146.714 124.355 147.902 124.355L151.762 124.235L152 128.345C149.862 128.762 148.258 128.94 147.189 128.94C144.516 128.94 142.675 128.345 141.665 127.094C140.655 125.843 140.18 123.521 140.18 120.126V109.108H137.15V104.701H140.18V97.8518H145.288V104.701H151.822V109.168Z" fill="#8C66B6"/>
<path d="M101.155 67.0014C94.6213 67.0014 89.2755 61.7604 89.2755 55.3283C89.2755 53.1247 89.9289 50.9806 91.0575 49.2535L77.7523 36.2701H62.4275C62.3681 36.3892 62.3681 36.5679 62.3087 36.687C61.4771 39.7244 59.517 42.2853 56.7253 43.8338C51.0825 47.0499 43.8359 45.144 40.569 39.6053C38.9652 36.9252 38.5494 33.7687 39.381 30.7909C40.2126 27.7535 42.1727 25.1925 44.9644 23.644C50.6073 20.4875 57.8539 22.3934 61.1208 27.8726C61.7147 28.9446 62.1899 30.0166 62.4275 31.2078H77.7523L91.1169 18.1648C89.8695 16.3186 89.0973 14.115 89.0973 11.6731C89.0973 5.241 94.4432 0 100.977 0C107.511 0 112.857 5.241 112.857 11.6731C112.857 18.1053 107.511 23.3463 100.977 23.3463C98.7198 23.3463 96.5815 22.6911 94.7995 21.6191L82.3853 33.7091L94.5619 45.6205C96.4627 44.3698 98.7198 43.6551 101.155 43.6551C107.689 43.6551 113.035 48.8961 113.035 55.3283C113.035 61.7604 107.689 67.0014 101.155 67.0014ZM101.155 48.7175C97.4131 48.7175 94.3244 51.6953 94.3244 55.3283C94.3244 58.9612 97.3537 61.9391 101.155 61.9391C104.897 61.9391 107.986 58.9612 107.986 55.3283C107.986 51.6953 104.897 48.7175 101.155 48.7175ZM50.8449 27.0983C49.6569 27.0983 48.4689 27.3961 47.3998 27.9917C45.796 28.885 44.6675 30.3144 44.2517 32.0416C43.7765 33.7091 44.0735 35.4958 44.905 36.9848C46.8058 40.2008 50.9637 41.2729 54.2306 39.4266C55.8343 38.5332 56.9629 37.1039 57.3787 35.3767C57.8539 33.7091 57.5569 31.9224 56.7253 30.4335C55.4779 28.2895 53.1614 27.0983 50.8449 27.0983ZM100.977 5.06233C97.2349 5.06233 94.1462 8.04017 94.1462 11.6731C94.1462 15.3061 97.1755 18.2839 100.977 18.2839C104.719 18.2839 107.808 15.3061 107.808 11.6731C107.808 8.04017 104.719 5.06233 100.977 5.06233Z" fill="#8C66B6"/>
</svg>
