<svg width="216" height="76" viewBox="0 0 216 76" fill="none" xmlns="http://www.w3.org/2000/svg">
<g clip-path="url(#clip0)">
<path d="M194.981 0H201.987C202.096 0 202.205 0.108649 202.205 0.217298V10.539C202.205 10.6476 202.15 10.7019 202.042 10.7563L198.729 12.549C198.62 12.6033 198.511 12.6033 198.457 12.549L194.872 10.7563C194.818 10.7019 194.764 10.6476 194.764 10.539V0.217298C194.764 0.108649 194.818 0 194.981 0Z" fill="#DE1D15"/>
<path d="M183.25 8.58333L181.077 15.2652C181.023 15.3739 181.131 15.5369 181.24 15.5369L191.071 18.742C191.179 18.7963 191.288 18.742 191.342 18.6877L194.058 16.0801C194.112 16.0258 194.166 15.9171 194.166 15.8085L193.569 11.8428C193.569 11.7342 193.515 11.6798 193.406 11.6798L183.576 8.47468C183.413 8.42036 183.304 8.47468 183.25 8.58333Z" fill="#DE1D15"/>
<path d="M213.827 8.58333L216 15.2652C216.054 15.3739 215.946 15.5369 215.837 15.5369L206.006 18.742C205.898 18.7963 205.789 18.742 205.735 18.6877L203.019 16.0801C202.965 16.0258 202.911 15.9171 202.911 15.8085L203.508 11.8428C203.508 11.7342 203.562 11.6798 203.671 11.6798L213.502 8.47468C213.665 8.42036 213.773 8.47468 213.827 8.58333Z" fill="#DE1D15"/>
<path d="M185.476 29.118L191.179 33.2466C191.288 33.3009 191.451 33.3009 191.505 33.1923L197.588 24.8263C197.642 24.772 197.642 24.6633 197.588 24.5547L195.904 21.1323C195.85 21.0236 195.796 20.9693 195.687 20.9693L191.722 20.3174C191.614 20.3174 191.559 20.3174 191.505 20.426L185.476 28.792C185.368 28.9007 185.422 29.0636 185.476 29.118Z" fill="#DE1D15"/>
<path d="M211.546 29.118L205.844 33.2466C205.735 33.3009 205.572 33.3009 205.518 33.1923L199.435 24.8263C199.38 24.772 199.38 24.6633 199.435 24.5547L201.118 21.1323C201.173 21.0236 201.227 20.9693 201.336 20.9693L205.3 20.3174C205.409 20.3174 205.463 20.3174 205.518 20.426L211.601 28.792C211.655 28.9007 211.655 29.0636 211.546 29.118Z" fill="#DE1D15"/>
<path d="M25.4725 49.0549C25.4725 45.1978 22.7025 40.7432 17.3799 40.7432C12.0573 40.7432 9.2874 45.1978 9.2874 49.0549C9.2874 53.1292 12.3289 57.2579 17.3799 57.2579C22.431 57.2579 25.4725 53.1292 25.4725 49.0549ZM0 32.8118H9.07015V36.3973H9.12446H9.23309C11.134 33.9526 14.3928 31.7253 19.3352 31.7253C30.8494 31.7253 35.1401 41.8297 35.1401 49.3265C35.1401 58.6703 28.6226 66.2757 19.3895 66.2757C13.5781 66.2757 10.8081 63.4509 9.66759 62.2557V75.9455H0V32.8118Z" fill="#181918"/>
<path d="M54.5295 57.1493C58.7116 57.1493 62.2962 53.7269 62.2962 49.0007C62.2962 44.2744 58.7116 40.852 54.5295 40.852C50.3475 40.852 46.7629 44.2744 46.7629 49.0007C46.7629 53.7269 50.2932 57.1493 54.5295 57.1493ZM54.5295 31.7798C66.3153 31.7798 71.9638 41.0693 71.9638 49.0007C71.9638 56.932 66.3153 66.2215 54.5295 66.2215C42.7438 66.2215 37.0953 56.932 37.0953 49.0007C37.0953 41.0693 42.7438 31.7798 54.5295 31.7798Z" fill="#181918"/>
<path d="M83.5866 22.0557H73.9191V65.2437H83.5866V22.0557Z" fill="#181918"/>
<path d="M103.465 57.2579C109.548 57.2579 111.557 52.097 111.557 49.0005C111.557 45.0892 108.896 40.7975 103.411 40.7975C97.8707 40.7975 95.4267 45.4694 95.4267 49.1635C95.4267 52.1514 97.6535 57.2579 103.465 57.2579ZM121.279 65.1892H111.612V61.7125H111.503C109.874 64.8633 105.855 66.3301 102.053 66.3301C91.7878 66.3301 85.7591 58.29 85.7591 49.0005C85.7591 38.4073 93.4171 31.7253 102.053 31.7253C107.375 31.7253 110.308 34.2786 111.503 36.2886H111.612V32.8662H121.279V65.1892Z" fill="#181918"/>
<path d="M124.267 32.8118H133.391V36.8318H133.5C134.314 35.2564 135.998 32.2686 141.592 32.2686V41.9926C137.084 42.1013 133.934 43.0248 133.934 47.9683V65.1892H124.267V32.8118Z" fill="#181918"/>
<path d="M153.595 32.812H143.928V65.1894H153.595V32.812Z" fill="#181918"/>
<path d="M153.595 22.0557H143.928V28.7376H153.595V22.0557Z" fill="#181918"/>
<path d="M172.061 41.9385C172.007 41.2323 171.898 39.4939 169.02 39.4939C166.956 39.4939 166.304 40.7977 166.304 41.6669C166.304 43.4052 168.694 44.3831 171.247 45.1436C176.732 46.6647 182.544 48.2944 182.544 55.3023C182.544 62.1472 176.515 66.3302 169.346 66.3302C164.458 66.3302 157.017 64.1029 156.148 55.5739H165.761C166.196 58.5618 169.02 58.5618 169.454 58.5618C171.084 58.5618 172.822 57.6383 172.822 56.0629C172.822 53.5639 170.432 53.238 164.24 50.8477C160.058 49.4896 156.528 46.7734 156.528 42.3731C156.528 35.9628 162.339 31.6711 169.074 31.6711C173.311 31.6711 180.697 33.3552 181.512 41.8842H172.061V41.9385Z" fill="#181918"/>
</g>
<defs>
<clipPath id="clip0">
<rect width="216" height="76" fill="white"/>
</clipPath>
</defs>
</svg>
